<svg width="46" height="55" viewBox="0 0 46 55" fill="none" xmlns="http://www.w3.org/2000/svg"><path fill-rule="evenodd" clip-rule="evenodd" d="M1.28515 43.116C0.747147 42.46 0.864838 41.4945 1.52638 40.9633L7.79313 35.9317C8.33977 35.4928 9.13896 35.5919 9.58466 36.133C13.8413 41.3008 18.3581 43.6931 23.3577 43.6931C28.3226 43.6931 32.7163 41.3346 36.7865 36.2242C37.2234 35.6758 38.0206 35.5623 38.5751 35.9914L44.9275 40.9075C45.5983 41.4266 45.7334 42.3897 45.2067 43.0545C39.1887 50.6508 31.8205 54.6531 23.3577 54.6531C14.9195 54.6531 7.48548 50.6758 1.28515 43.116Z" fill="url(#paint0_linear)"/><path fill-rule="evenodd" clip-rule="evenodd" d="M23.661 14.753C23.4248 14.5438 23.0697 14.5437 22.8333 14.7527L9.20668 26.8019C8.68576 27.2626 7.88898 27.2091 7.43428 26.683L2.11948 20.5338C1.67111 20.0151 1.72475 19.2319 2.23964 18.7791L22.4222 1.03072C22.894 0.615856 23.6005 0.615948 24.0722 1.03094L44.2593 18.7927C44.7745 19.246 44.8275 20.03 44.378 20.5486L39.0504 26.6947C38.5951 27.2198 37.7988 27.2724 37.2785 26.8116L23.661 14.753Z" fill="url(#paint1_linear)"/><defs><linearGradient id="paint0_linear" x1="0.336" y1="27.619" x2="46.134" y2="27.619" gradientUnits="userSpaceOnUse"><stop offset="0.226" stop-color="#6647F0"/><stop offset="0.793" stop-color="#0091FF"/></linearGradient><linearGradient id="paint1_linear" x1="0.336" y1="27.174" x2="46.134" y2="27.174" gradientUnits="userSpaceOnUse"><stop stop-color="#FF02F0"/><stop offset="0.779" stop-color="#F76808"/><stop offset="1" stop-color="#F76808"/></linearGradient></defs></svg>
