<svg width="140" height="160" viewBox="0 0 140 160" fill="none" xmlns="http://www.w3.org/2000/svg">
  <!-- Element card border -->
  <rect x="2" y="2" width="136" height="156" rx="7" stroke="#1A6B60" stroke-width="2.5" fill="rgba(42,157,143,0.04)"/>

  <!-- Atomic number area - infinity symbol -->
  <text x="16" y="28" font-family="Outfit, sans-serif" font-weight="600" font-size="24" fill="#2A9D8F">∞</text>

  <!-- Element symbol - CU (ClickUp) -->
  <text x="70" y="88" font-family="Outfit, sans-serif" font-weight="600" font-size="56" fill="#1A6B60" text-anchor="middle">Cu</text>

  <!-- Element name -->
  <text x="70" y="115" font-family="Outfit, sans-serif" font-weight="400" font-size="10" fill="#8FA8A0" text-anchor="middle" letter-spacing="3">CLICKUP</text>

  <!-- ClickUp checkmark integrated subtly -->
  <g transform="translate(50, 125) scale(0.35)" opacity="0.6">
    <path d="M1.28 43.12C0.75 42.46 0.86 41.49 1.53 40.96L7.79 35.93C8.34 35.49 9.14 35.59 9.58 36.13C13.84 41.3 18.36 43.69 23.36 43.69C28.32 43.69 32.72 41.33 36.79 36.22C37.22 35.68 38.02 35.56 38.58 35.99L44.93 40.91C45.6 41.43 45.73 42.39 45.21 43.05C39.19 50.65 31.82 54.65 23.36 54.65C14.92 54.65 7.49 50.68 1.28 43.12Z" fill="url(#grad1)"/>
    <path d="M23.66 14.75C23.42 14.54 23.07 14.54 22.83 14.75L9.21 26.8C8.69 27.26 7.89 27.21 7.43 26.68L2.12 20.53C1.67 20.02 1.72 19.23 2.24 18.78L22.42 1.03C22.89 0.62 23.6 0.62 24.07 1.03L44.26 18.79C44.77 19.25 44.83 20.03 44.38 20.55L39.05 26.69C38.6 27.22 37.8 27.27 37.28 26.81L23.66 14.75Z" fill="url(#grad2)"/>
  </g>

  <!-- Domain indicator line -->
  <line x1="20" y1="148" x2="120" y2="148" stroke="#E8A838" stroke-width="2" stroke-linecap="round" opacity="0.6"/>

  <defs>
    <linearGradient id="grad1" x1="0" y1="28" x2="46" y2="28">
      <stop offset="0.226" stop-color="#6647F0"/>
      <stop offset="0.793" stop-color="#0091FF"/>
    </linearGradient>
    <linearGradient id="grad2" x1="0" y1="27" x2="46" y2="27">
      <stop stop-color="#FF02F0"/>
      <stop offset="0.779" stop-color="#F76808"/>
      <stop offset="1" stop-color="#F76808"/>
    </linearGradient>
  </defs>
</svg>
